<?xml version="1.0" encoding="utf-8"?>
<!-- Generator: Adobe Illustrator 15.0.0, SVG Export Plug-In . SVG Version: 6.00 Build 0)  -->
<!DOCTYPE svg PUBLIC "-//W3C//DTD SVG 1.1//EN" "http://www.w3.org/Graphics/SVG/1.1/DTD/svg11.dtd">
<svg version="1.1" id="Layer_1" xmlns="http://www.w3.org/2000/svg" xmlns:xlink="http://www.w3.org/1999/xlink" x="0px" y="0px"
	 width="592.525px" height="599.132px" viewBox="0 0 592.525 599.132" enable-background="new 0 0 592.525 599.132"
	 xml:space="preserve">
<g>
	<path fill="#A6A6A6" d="M565.475,147.609l-17.427,28.419l-27.977-18.063c29.676,113.794,34.729,200.255-26.35,312.483
		c-8.121,6.639-15.455-12.259-24.426-4.541c-46.527,42.555-72.023,88.313-172.944,86.188
		c-100.646,2.126-126.486-43.633-173.833-86.188c-7.847-7.718-15.371,11.18-23.562,4.541
		C38.092,358.221,42.642,271.759,72.584,157.965l-28.556,18.063l-17.117-28.419c-28.06,98.388-60.864,225.214,53.88,378.686
		c5.54,7.159,20.996,5.333,26.356-5.876c55.82,51.953,122.439,78.771,188.349,78.653v0.059c0.279,0,0.537-0.014,0.801,0
		c0.282-0.014,0.595,0,0.819,0v-0.059c65.686,0.104,132.321-26.7,188.483-78.653c4.419,11.209,20.681,13.035,25.51,5.876
		C626.608,372.823,593.769,245.998,565.475,147.609 M22.714,217.491l24.382-3.421l-0.862,6.914l-18.195,2.385l15.989,9.585
		l-0.582,5.304l-21.846-13.272L22.714,217.491z M16.277,256.352l23.834,3.449L37,279.734l-3.377-0.777l1.668-13.034l-4.19-1.048
		l-2.205,11.144l-4.513-0.496l0.819-10.648l-4.463-0.813l-1.702,13.847l-5.592-0.842L16.277,256.352z M13.444,325.239l15.451-10.908
		H13.444v-5.318H37v6.626l-13.466,10.648H37v5.06H13.444V325.239z M18.216,358.221l23.562-3.463l0.863,6.927l-23.605,3.421
		L18.216,358.221z M28.896,398.634l18.201-5.059l-1.668-6.898l3.334-0.818l6.483,20.767l-4.542,0.79l-1.941-6.927l-17.662,5.059
		L28.896,398.634z M171.167,530.708l-5.951-3.119c1.668-2.041,1.316-4.196-0.732-6.135c-2.012-1.812-4.527-2.199-6.252-1.165
		c-2.069,1.336-0.675,3.134,1.444,6.539c1.402,2.4,2.796,4.313,2.846,6.871c-0.05,2.054-1.086,3.806-3.615,5.315
		c-4.728,2.905-12.208,1.885-17.885-3.176c-4.965-4.685-5.318-9.814-1.351-13.825l5.95,3.723c-2.206,2.198-1.753,4.856,0.941,7.287
		c2.026,1.94,4.649,2.514,6.531,1.364c2.3-1.38,0.943-3.307-1.213-6.799c-1.531-2.5-3.069-4.526-2.788-7.37
		c0.172-1.652,1.164-3.092,3.017-4.211c4.858-3.033,11.929-2.128,17.339,2.744C173.681,522.704,174.228,526.843,171.167,530.708
		 M209.005,548.544l-6.984-3.176l-14.508,18.353l-7.114-3.146l14.552-18.34l-6.993-3.177l3.163-4.01l21.032,9.472L209.005,548.544z
		 M250.412,576.022c-2.445,5.921-7.978,8.021-16.499,6.094c-5.088-1.149-8.465-3.392-9.679-6.382
		c-0.727-1.381-0.418-3.362,0.575-5.792l6.501-16.325l7.826,1.81l-6.437,16.14c-1.13,3.189-0.044,5.117,3.966,6.123
		c3.735,0.776,6.446-0.317,7.696-3.535l6.317-16.039l6.179,1.467L250.412,576.022z M292.313,589.113l-12.13,0.26l-1.675-26.099
		l12.446-0.315c4.445-0.073,8.02,0.43,10.627,1.668c4.806,2.126,7.701,6.121,7.926,11.08
		C310.044,583.681,303.838,588.898,292.313,589.113 M341.95,585.22l-11.09-24.948l23.425-5.591l2.124,4.499l-16.09,3.851
		l2.443,5.462l12.885-3.133l1.89,4.268l-12.799,3.062l2.653,6.166l16.274-3.938l2.109,4.57L341.95,585.22z M398.89,568.175
		l-15.543-18.237l-6.94,3.219l-3.472-4.023l20.636-9.527l3.429,3.938l-6.797,3.147l15.484,18.252L398.89,568.175z M437.003,547.853
		l-25.544-18.223l17.066-13.179l4.639,3.277l-11.611,9.026l5.531,3.966l9.332-7.287l4.272,3.062l-9.36,7.301l6.349,4.527
		l11.758-9.212l4.777,3.392L437.003,547.853z M575.832,271.759l-19.366,1.077l0.854,7.731h-4.454l-1.719-21.557h4.557v6.913
		l19.322-1.048L575.832,271.759z M548.048,214.07l1.699,13.049h5.054l-1.122-11.202h4.497l1.123,10.111l5.321-1.042l-1.67-12.812
		l5.314-0.762l2.798,20.723l-23.503,2.414l-2.846-19.717L548.048,214.07z M531.869,471.225l-5.347,9.298l-20.778-10.074l5.366-9.857
		C521.194,445.171,541.056,456.595,531.869,471.225 M549.747,440.111l-20.441-10.377l2.563-6.899l21.81,10.377L549.747,440.111z
		 M564.62,401.293c-0.853,2.372-3.689,8.521-9.819,8.521l0.903-6.149c2.472,0,4.458-3.177,4.458-3.981
		c0.769-2.659,0.769-6.108-1.986-5.563c-3.375,2.903-5.31,13.294-11.481,12.504c-3.651,0-8.209-3.736-5.639-12.504
		c0.858-4.268,3.658-8.263,8.169-8.263v5.059c-1.665,0-2.53,1.595-3.654,3.204c-0.856,2.127-0.856,5.563,1.124,5.563
		c1.354,0.805,3.053-3.436,5.319-6.108c1.665-5.316,5.307-6.898,10.088-5.316C566.281,389.854,566.281,396.248,564.62,401.293
		 M576.697,351.279c-1.671,7.746-7.613,12.245-15.767,10.405c-3.61,0-9.783-4.254-8.917-12.229c0-5.879,3.69-13.035,10.937-12.274
		v7.2c-6.484-1.58-8.149,5.074-4.774,7.732c1.986,2.645,12.887,5.317,13.747-1.638c0-1.84,0-5.318-3.658-6.095l1.718-6.136
		C576.697,340.143,577.498,346.796,576.697,351.279 M554.801,306.6h23.609v6.653h-23.609V306.6z M67.289,445.944l-5.641-11.956
		l-4.463,1.897l4.463,9.285l-4.463,1.606l-3.642-9.327l-5.642,1.641l5.642,13.277l-4.78,1.539l-7.846-18.854l21.629-8.768
		l8.112,18.886L67.289,445.944z"/>
	<path fill="#A6A6A6" d="M122.518,287.482v9.275v113.849c1.984,69.916,103.734,37.479,173.833,120.189l1.439-2.645
		c70.012-79.577,171.504-48.103,172.676-117.545V296.757v-9.275V165.2l51.23-62.285h-51.23h-5.898H361.615h-55.171H286.54h-52.721
		H128.137h-5.619H69.796l52.722,62.796V287.482z M308.109,120.72h133.707h3.654h22.712h8.14l-5.855,8.709v-0.841l-24.996,33.221
		v114.21H308.109V120.72z M446.315,298.36v102.128c6.172,59.313-73.737,29.246-137.073,88.832l-1.133-190.96H446.315z
		 M284.548,489.32c-64.468-59.586-143.792-29.52-137.347-88.832V298.36h138.204L284.548,489.32z M284.548,120.72v155.299H147.201
		v-114.21l-24.683-32.811v0.525l-6.137-8.803h8.121h22.699h3.643H284.548z"/>
	<polygon fill="#A6A6A6" points="122.518,128.999 116.381,120.721 122.518,129.523 	"/>
	<polygon fill="#A6A6A6" points="470.467,129.43 476.322,120.721 470.467,128.589 	"/>
	<path fill="#A6A6A6" d="M178.869,84.857l-0.862,4.231l56.358,4.887c0.223-2.055,0.539-4.081,0.955-6.065L178.869,84.857z"/>
	<path fill="#A6A6A6" d="M416.272,89.088l-0.771-4.231l-55.262,2.988c0.351,2.005,0.669,3.989,0.896,6.058L416.272,89.088z"/>
	<path fill="#A6A6A6" d="M183.597,63.809l-0.769,4.528l53.743,14.235c0.545-2.135,1.264-4.247,2.068-6.309L183.597,63.809z"/>
	<path fill="#A6A6A6" d="M412.708,68.337l-1.737-4.528l-54.115,12.252c0.716,2.034,1.435,4.096,2.07,6.23L412.708,68.337z"/>
	<path fill="#A6A6A6" d="M196.258,47.62l-1.667,3.421l46.212,20.292c0.956-1.904,1.983-3.758,3.111-5.562L196.258,47.62z"/>
	<path fill="#A6A6A6" d="M400.104,51.041l-1.763-3.421l-46.717,18.101c1.127,1.833,2.202,3.722,3.126,5.662L400.104,51.041z"/>
	<path fill="#A6A6A6" d="M216.436,32.163l-2.794,2.407l33.025,27.355c1.214-1.624,2.564-3.155,3.966-4.628L216.436,32.163z"/>
	<path fill="#A6A6A6" d="M381.007,34.57l-2.789-2.407l-33.703,24.733c1.396,1.422,2.694,2.881,3.96,4.44L381.007,34.57z"/>
	<path fill="#A6A6A6" d="M251.761,7.71l-3.65,2.644l17.792,35.864c2.019-0.969,4.096-1.868,6.273-2.659L251.761,7.71z"/>
	<path fill="#A6A6A6" d="M347.083,10.354l-4.464-2.644l-20.221,35.475c2.29,0.792,4.463,1.703,6.568,2.695L347.083,10.354z"/>
	<path fill="#A6A6A6" d="M272.794,6.107l-4.462,1.603l8.149,34.412c1.939-0.568,3.917-1.106,6.05-1.537L272.794,6.107z"/>
	<path fill="#A6A6A6" d="M326.362,7.71l-4.516-1.603l-9.639,34.298c2.025,0.388,4.062,0.906,5.941,1.423L326.362,7.71z"/>
	<path fill="#A6A6A6" d="M289.876,11.425l-5.328,0.538l2.388,27.888c1.983-0.294,4.017-0.523,6.18-0.712L289.876,11.425z"/>
	<path fill="#A6A6A6" d="M309.779,11.425h-4.453l-2.938,27.714c1.757,0.13,3.52,0.318,5.185,0.547L309.779,11.425z"/>
	<path fill="#A6A6A6" d="M241.12,29.252l-3.967,2.911l17.49,21.421c1.517-1.316,3.112-2.494,4.851-3.629L241.12,29.252z"/>
	<path fill="#A6A6A6" d="M357.127,32.163l-3.612-2.911l-18.011,20.3c1.76,1.129,3.419,2.343,5.001,3.629L357.127,32.163z"/>
	<polygon fill="#A6A6A6" points="169.866,84.857 158.966,85.367 169.866,88.026 	"/>
	<polygon fill="#A6A6A6" points="424.472,84.857 424.472,88.026 436.495,85.367 	"/>
	<polygon fill="#A6A6A6" points="189.805,45.722 178.869,43.063 188.965,49.445 	"/>
	<polygon fill="#A6A6A6" points="415.501,43.063 404.787,45.723 405.688,49.444 	"/>
	<polygon fill="#A6A6A6" points="235.485,22.34 227.338,15.405 230.707,24.439 	"/>
	<polygon fill="#A6A6A6" points="367.261,15.406 359.95,22.341 363.617,24.439 	"/>
	<path fill="#A6A6A6" d="M296.352,54.497c-26.941,0.797-46.256,19.725-46.256,42h92.524
		C341.711,72.567,326.362,56.093,296.352,54.497"/>
	<path fill="#A6A6A6" d="M216.436,244.416c1.574,0,2.89-0.697,3.421-1.265l42.533,3.616v-80.051
		c-16.808-2.601-29.009-15.643-46.083-2.536c-17.662-13.107-29.066-0.065-46.441,2.536v80.051l42.115-3.572
		C212.6,243.77,214.267,244.416,216.436,244.416 M219.231,168.873c13.689-11.965,22.749-0.561,36.483,1.845v70.723
		c-12.108-4.233-16.579-11.662-36.483-7.651V168.873z M176.081,241.441v-70.723c13.725-2.406,22.966-13.81,36.431-1.845v64.917
		C192.601,229.779,188.104,237.208,176.081,241.441"/>
	<polygon fill="#A6A6A6" points="165.668,257.142 267.21,257.142 269.41,257.142 271.667,257.142 271.667,169.92 267.21,169.92 
		267.21,252.911 165.668,252.911 165.668,169.92 160.925,169.92 160.925,257.142 161.789,257.142 	"/>
	<path fill="#A6A6A6" d="M376.49,244.416c1.947,0,3.524-0.646,4.149-1.221l42.129,3.572v-80.051
		c-16.808-2.601-29.599-15.707-46.543-2.471c-16.661-13.236-29.417-0.13-46.268,2.471v80.051l42.932-3.637
		C373.433,243.691,375.142,244.416,376.49,244.416 M379.883,168.873c13.728-11.965,22.966-0.561,36.39,1.845v70.723
		c-11.484-4.233-16.168-11.662-36.39-7.651V168.873z M337.521,241.441v-70.723c13.482-2.406,22.43-13.81,36.447-1.845v64.917
		C353.514,229.779,349.011,237.208,337.521,241.441"/>
	<polygon fill="#A6A6A6" points="427.266,252.911 325.503,252.911 325.503,169.921 320.996,169.921 320.996,257.142 
		323.467,257.142 325.503,257.142 427.266,257.142 430.596,257.142 431.778,257.142 431.778,169.921 427.266,169.921 	"/>
	<path fill="#A6A6A6" d="M216.436,409.814c1.668,0,3.112-0.632,3.471-1.307l42.483,2.874v-71.239
		c-16.808-2.904-29.009-14.443-46.083-2.529c-17.662-11.914-29.066-0.375-46.441,2.529v71.239l42.022-2.817
		C212.339,409.225,214.101,409.814,216.436,409.814 M219.231,342.801c13.689-11.454,22.749-1.079,36.483,0.775v64.644
		c-12.108-4.555-16.579-11.195-36.483-7.732V342.801z M176.081,408.22v-64.644c13.725-1.854,22.966-12.229,36.431-0.775v57.687
		C192.601,397.024,188.104,403.665,176.081,408.22"/>
	<polygon fill="#A6A6A6" points="165.668,422.017 267.21,422.017 269.41,422.017 271.667,422.017 271.667,343.576 267.21,343.576 
		267.21,417.503 165.668,417.503 165.668,343.576 160.925,343.576 160.925,422.017 161.789,422.017 	"/>
	<path fill="#A6A6A6" d="M375.362,409.814c2.436,0,3.916-0.632,4.335-1.292l42.211,2.859l0.861-71.239
		c-17.668-2.904-29.648-14.487-47.08-2.458c-16.984-12.029-29.466-0.446-46.581,2.458v71.239l42.839-2.874
		C372.442,409.183,374.151,409.814,375.362,409.814 M378.218,342.801c13.688-11.454,23.509-1.079,36.431,0.775v64.644
		c-11.799-4.555-16.307-11.195-36.431-7.732V342.801z M336.677,408.22l-1.396-64.644c13.73-1.854,23.831-12.229,37.298-0.775v57.687
		C352.928,397.024,347.083,403.665,336.677,408.22"/>
	<polygon fill="#A6A6A6" points="324.654,422.017 426.406,422.017 428.892,422.017 430.596,422.017 430.596,343.576 
		426.406,343.576 426.406,417.503 324.654,417.503 324.654,343.576 319.874,343.576 319.874,422.017 321.847,422.017 	"/>
	<polygon fill="#A6A6A6" points="299.145,0 296.351,0 295.497,38.803 297.118,38.803 299.95,38.803 	"/>
	<path fill="#A6A6A6" d="M291.449,567.586l-4.376,0.059l0.947,16.843l4.456-0.03c5.413-0.171,8.558-3.347,8.206-8.649
		C300.453,570.489,296.99,567.472,291.449,567.586"/>
	<path fill="#A6A6A6" d="M515.071,463.521l-1.615,2.874l13.066,6.424l1.646-3.173C532.954,461.666,519.262,454.757,515.071,463.521"
		/>
</g>
</svg>
